<?xml version="1.0" standalone="no"?>
<svg xmlns:xlink="http://www.w3.org/1999/xlink" id="wave" style="transform:rotate(0deg); transition: 0.3s" viewBox="0 0 1440 160" version="1.1" xmlns="http://www.w3.org/2000/svg"><defs><linearGradient id="sw-gradient-0" x1="0" x2="0" y1="1" y2="0"><stop stop-color="rgba(42.278, 97.962, 164.355, 1)" offset="0%"/><stop stop-color="rgba(65, 117, 179, 1)" offset="100%"/></linearGradient></defs><path style="transform:translate(0, 0px); opacity:1" fill="url(#sw-gradient-0)" d="M0,80L48,66.7C96,53,192,27,288,24C384,21,480,43,576,56C672,69,768,75,864,85.3C960,96,1056,112,1152,114.7C1248,117,1344,107,1440,85.3C1536,64,1632,32,1728,34.7C1824,37,1920,75,2016,77.3C2112,80,2208,48,2304,42.7C2400,37,2496,59,2592,61.3C2688,64,2784,48,2880,37.3C2976,27,3072,21,3168,40C3264,59,3360,101,3456,112C3552,123,3648,101,3744,101.3C3840,101,3936,123,4032,114.7C4128,107,4224,69,4320,69.3C4416,69,4512,107,4608,114.7C4704,123,4800,101,4896,101.3C4992,101,5088,123,5184,114.7C5280,107,5376,69,5472,56C5568,43,5664,53,5760,48C5856,43,5952,21,6048,32C6144,43,6240,85,6336,90.7C6432,96,6528,64,6624,45.3C6720,27,6816,21,6864,18.7L6912,16L6912,160L6864,160C6816,160,6720,160,6624,160C6528,160,6432,160,6336,160C6240,160,6144,160,6048,160C5952,160,5856,160,5760,160C5664,160,5568,160,5472,160C5376,160,5280,160,5184,160C5088,160,4992,160,4896,160C4800,160,4704,160,4608,160C4512,160,4416,160,4320,160C4224,160,4128,160,4032,160C3936,160,3840,160,3744,160C3648,160,3552,160,3456,160C3360,160,3264,160,3168,160C3072,160,2976,160,2880,160C2784,160,2688,160,2592,160C2496,160,2400,160,2304,160C2208,160,2112,160,2016,160C1920,160,1824,160,1728,160C1632,160,1536,160,1440,160C1344,160,1248,160,1152,160C1056,160,960,160,864,160C768,160,672,160,576,160C480,160,384,160,288,160C192,160,96,160,48,160L0,160Z"/></svg>